<?xml version="1.0" standalone="no"?><!-- Generator: Gravit.io --><svg xmlns="http://www.w3.org/2000/svg" xmlns:xlink="http://www.w3.org/1999/xlink" style="isolation:isolate" viewBox="0 0 640 512" width="640" height="512"><defs><clipPath id="_clipPath_1oux4o1GJsFPLGt3s66wdY5tiaBEnzj6"><rect width="640" height="512"/></clipPath></defs><g clip-path="url(#_clipPath_1oux4o1GJsFPLGt3s66wdY5tiaBEnzj6)"><path d=" M 320 104.5 C 491.4 104.5 623.2 176.7 623.2 256 C 623.2 335.3 491.3 407.5 320 407.5 C 148.6 407.5 16.8 335.3 16.8 256 C 16.8 176.7 148.7 104.5 320 104.5 Z  M 320 87.7 C 143.3 87.7 0 163 0 256 C 0 349 143.3 424.3 320 424.3 C 496.7 424.3 640 349 640 256 C 640 163 496.7 87.7 320 87.7 Z  M 218.2 242.5 C 210.3 283 182.4 278.8 148.1 278.8 L 161.8 208.2 C 199.8 208.2 225.6 204.1 218.2 242.5 Z  M 97.4 350.3 L 134.1 350.3 L 142.8 305.5 C 183.9 305.5 209.4 308.5 233 286.4 C 259.1 262.4 265.9 219.7 247.3 198.3 C 237.6 187.1 222 181.6 200.8 181.6 L 130.1 181.6 L 97.4 350.3 L 97.4 350.3 Z  M 283.1 136.7 L 319.6 136.7 L 310.9 181.5 C 342.4 181.5 371.6 179.2 385.7 192.2 C 400.5 205.8 393.4 223.2 377.4 305.3 L 340.4 305.3 C 355.8 225.9 358.7 219.3 353.1 213.3 C 347.7 207.5 335.4 208.7 305.7 208.7 L 286.9 305.3 L 250.4 305.3 L 283.1 136.7 L 283.1 136.7 Z  M 505 242.5 C 497 283.6 468.3 278.8 434.9 278.8 L 448.6 208.2 C 486.8 208.2 512.4 204.1 505 242.5 L 505 242.5 Z  M 384.2 350.3 L 421 350.3 L 429.7 305.5 C 472.9 305.5 496.8 308 519.9 286.4 C 546 262.4 552.8 219.7 534.2 198.3 C 524.5 187.1 508.9 181.6 487.7 181.6 L 417 181.6 L 384.2 350.3 L 384.2 350.3 Z " fill="rgb(179,133,175)" fill-opacity="0.69"/></g></svg>