<?xml version="1.0" standalone="no"?><!-- Generator: Gravit.io --><svg xmlns="http://www.w3.org/2000/svg" xmlns:xlink="http://www.w3.org/1999/xlink" style="isolation:isolate" viewBox="0 0 448 512" width="448" height="512"><defs><clipPath id="_clipPath_0XpVgmYiDZQkuZqW1UnFU9WNSHFJ6wge"><rect width="448" height="512"/></clipPath></defs><g clip-path="url(#_clipPath_0XpVgmYiDZQkuZqW1UnFU9WNSHFJ6wge)"><path d=" M 186.8 202.1 L 282 256.2 L 186.8 310.3 L 186.8 202.1 L 186.8 202.1 Z  M 448 80 L 448 432 C 448 458.5 426.5 480 400 480 L 48 480 C 21.5 480 0 458.5 0 432 L 0 80 C 0 53.5 21.5 32 48 32 L 400 32 C 426.5 32 448 53.5 448 80 Z  M 406 256.3 C 406 256.3 406 196.7 398.4 168.1 C 394.2 152.3 381.9 139.9 366.2 135.7 C 337.9 128 224 128 224 128 C 224 128 110.1 128 81.8 135.7 C 66.1 139.9 53.8 152.3 49.6 168.1 C 42 196.6 42 256.3 42 256.3 C 42 256.3 42 315.9 49.6 344.5 C 53.8 360.3 66.1 372.2 81.8 376.4 C 110.1 384 224 384 224 384 C 224 384 337.9 384 366.2 376.3 C 381.9 372.1 394.2 360.2 398.4 344.4 C 406 315.9 406 256.3 406 256.3 L 406 256.3 Z " fill="rgb(200,4,4)" fill-opacity="0.78"/></g></svg>